<svg class="ico-linkedin" viewBox="0 0 32 32" xmlns="http://www.w3.org/2000/svg" preserveAspectRatio="none">
	<path d="M28.8 0H3.2C1.44 0 0 1.44 0 3.2v25.6C0 30.56 1.44 32 3.2 32h25.6c1.76 0 3.2-1.44 3.2-3.2V3.2C32 1.44 30.56 0 28.8 0zM9.6 27.2H4.8V12.8h4.8v14.4zM7.2 10.08c-1.6 0-2.88-1.28-2.88-2.88 0-1.6 1.28-2.88 2.88-2.88 1.6 0 2.88 1.28 2.88 2.88 0 1.6-1.28 2.88-2.88 2.88zm20 17.12h-4.8v-8.48c0-1.28-1.12-2.4-2.4-2.4-1.28 0-2.4 1.12-2.4 2.4v8.48h-4.8V12.8h4.8v1.92c.8-1.28 2.56-2.24 4-2.24 3.04 0 5.6 2.56 5.6 5.6v9.12z" fill-rule="nonzero" fill="#A1A1A1"/>
</svg>