<svg class="ico-twitter" viewBox="0 0 37 29" xmlns="http://www.w3.org/2000/svg" xmlns:xlink="http://www.w3.org/1999/xlink" preserveAspectRatio="none">
	<defs>
		<path id="a" class="path-no-fill" d="M.454.322h36.494v28.626H.454V.322z"/>
	</defs>
	<g fill="none" fill-rule="evenodd">
		<mask id="b" fill="#fff">
			<use xlink:href="#a"/>
		</mask>
		<path d="M32.648 4.848c1.546-.894 2.733-2.31 3.292-3.998-1.447.828-3.05 1.43-4.755 1.754C29.82 1.2 27.875.322 25.72.322c-4.135 0-7.487 3.235-7.487 7.226 0 .567.066 1.118.193 1.647-6.222-.3-11.74-3.178-15.432-7.55C2.35 2.71 1.98 3.952 1.98 5.277c0 2.507 1.322 4.72 3.33 6.015-1.226-.038-2.38-.363-3.39-.904v.09c0 3.5 2.58 6.422 6.005 7.086-.628.165-1.29.254-1.972.254-.483 0-.952-.046-1.41-.13.954 2.87 3.72 4.96 6.996 5.02-2.564 1.937-5.792 3.092-9.3 3.092-.604 0-1.2-.034-1.786-.1 3.313 2.05 7.25 3.246 11.477 3.246 13.773 0 21.304-11.012 21.304-20.562 0-.313-.008-.625-.022-.935 1.463-1.018 2.732-2.29 3.736-3.74-1.343.575-2.786.964-4.3 1.138z" fill="#A1A1A1" mask="url(#b)"/>
	</g>
</svg>